<svg height="512pt" viewBox="0 -43 512 512" width="512pt" xmlns="http://www.w3.org/2000/svg"><path style="fill:#fff;" d="m192 426.667969c-8.832031 0-16-7.167969-16-16v-394.667969c0-8.832031 7.167969-16 16-16s16 7.167969 16 16v394.667969c0 8.832031-7.167969 16-16 16zm0 0"/><path style="fill:#fff;"  d="m368 85.332031c-8.832031 0-16-7.167969-16-16v-37.332031h-320v37.332031c0 8.832031-7.167969 16-16 16s-16-7.167969-16-16v-53.332031c0-8.832031 7.167969-16 16-16h352c8.832031 0 16 7.167969 16 16v53.332031c0 8.832031-7.167969 16-16 16zm0 0"/><path style="fill:#fff;"  d="m240 426.667969h-96c-8.832031 0-16-7.167969-16-16s7.167969-16 16-16h96c8.832031 0 16 7.167969 16 16s-7.167969 16-16 16zm0 0"/><path style="fill:#fff;"  d="m314.667969 261.332031c-8.832031 0-16-7.167969-16-16v-37.332031c0-8.832031 7.167969-16 16-16h181.332031c8.832031 0 16 7.167969 16 16v32c0 8.832031-7.167969 16-16 16s-16-7.167969-16-16v-16h-149.332031v21.332031c0 8.832031-7.167969 16-16 16zm0 0"/><path style="fill:#fff;"  d="m405.332031 426.667969c-8.832031 0-16-7.167969-16-16v-202.667969c0-8.832031 7.167969-16 16-16s16 7.167969 16 16v202.667969c0 8.832031-7.167969 16-16 16zm0 0"/><path style="fill:#fff;"  d="m432 426.667969h-53.332031c-8.832031 0-16-7.167969-16-16s7.167969-16 16-16h53.332031c8.832031 0 16 7.167969 16 16s-7.167969 16-16 16zm0 0"/></svg>