<svg id="Capa_1" enable-background="new 0 0 510.401 510.401" height="512" viewBox="0 0 510.401 510.401" width="512" xmlns="http://www.w3.org/2000/svg"><g id="XMLID_140_"><path id="XMLID_142_" d="m163.425 202.213c20.652-19.177 47.295-31.98 76.774-35.255v-30.148c-37.749 3.418-71.867 19.596-97.994 44.184z"/><path id="XMLID_252_" d="m90.201 300.2h30.001c.188-27.87 8.868-53.761 23.571-75.213l-21.501-21.501c-19.979 27.128-31.872 60.56-32.071 96.714z"/><circle id="XMLID_257_" cx="255.199" cy="360.2" r="15"/><path id="XMLID_837_" d="m255.199 45.2c-177.374 0-299.173 175.998-240.155 340.934 16.994 47.493 42.919 75.174 45.597 79.066h389.118c2.644-3.844 28.652-31.713 45.596-79.066 59.039-164.984-62.857-340.934-240.156-340.934zm-105 360h-30v-30h30zm105 0c-24.812 0-45-20.187-45-45 0-26.793 23.484-47.99 50.548-44.646l26.036-52.064 26.832 13.418-26.044 52.08c27.455 28.468 7.194 76.212-32.372 76.212zm135 0h-30v-30h30zm59.415-88.841-1.072 13.841h-91.019l1.957-16.741c7.306-62.557-41.615-117.339-104.281-117.339-62.633 0-111.597 54.747-104.281 117.339l1.957 16.741h-91.02l-1.071-13.843c-8.807-113.753 81.366-210.237 194.415-210.237 113.165 0 203.233 96.617 194.415 210.239z"/><path id="XMLID_862_" d="m270.199 136.81v30.148c29.48 3.274 56.121 16.078 76.773 35.255l21.221-21.22c-26.126-24.589-60.246-40.765-97.994-44.183z"/><path id="XMLID_863_" d="m366.625 224.987c14.703 21.452 23.383 47.343 23.571 75.213h30c-.197-36.154-12.092-69.586-32.07-96.714z"/></g></svg>